<?xml version="1.0" encoding="utf-8"?>
<!-- Generator: Adobe Illustrator 16.0.0, SVG Export Plug-In . SVG Version: 6.00 Build 0)  -->
<!DOCTYPE svg PUBLIC "-//W3C//DTD SVG 1.1//EN" "http://www.w3.org/Graphics/SVG/1.1/DTD/svg11.dtd">
<svg version="1.1" id="Camada_1" xmlns="http://www.w3.org/2000/svg" xmlns:xlink="http://www.w3.org/1999/xlink" x="0px" y="0px"
	 width="1422.666px" height="522.333px" viewBox="0 0 1422.666 522.333" enable-background="new 0 0 1422.666 522.333"
	 xml:space="preserve">
<g>
	<g>
		<path fill="#EC6823" d="M195.114,456.614c-3.96,3.664-8.579,5.5-13.858,5.5c-4.108,0-7.48-1.139-10.12-3.41
			c-2.641-2.271-3.96-5.391-3.96-9.35v-57.421c-0.148-12.173-1.578-21.154-4.29-26.95c-2.716-5.792-7.666-8.689-14.851-8.689
			c-4.841,0-9.277,1.836-13.311,5.5c-4.036,3.668-7.298,9.277-9.79,16.83c-2.496,7.557-3.74,16.979-3.74,28.271
			c0,17.308,0.221,28.747,0.66,34.319c0.439,5.576,1.612,10.781,3.521,15.621c-1.469,1.318-3.409,2.529-5.83,3.629
			c-2.42,1.102-5.025,1.65-7.811,1.65c-4.256,0-7.699-1.248-10.34-3.74c-2.64-2.492-3.96-5.863-3.96-10.119v-75.021
			c-0.147-4.104-0.66-7.04-1.54-8.8c-0.88-1.761-2.348-2.642-4.399-2.642c-2.787,0-4.695,1.028-5.721,3.08
			c-1.907-2.783-2.859-5.572-2.859-8.359c0-3.813,1.393-6.93,4.181-9.35c2.784-2.42,6.672-3.631,11.66-3.631
			c6.304,0,11.182,2.166,14.63,6.49c3.444,4.328,5.17,10.746,5.17,19.25v1.1c2.932-8.652,7.59-15.289,13.97-19.91
			c6.38-4.619,14.114-6.93,23.21-6.93c12.024,0,20.936,3.74,26.73,11.221c5.792,7.479,8.688,18.699,8.688,33.66v42.02
			C191.446,442.459,192.767,451.19,195.114,456.614z"/>
		<path fill="#EC6823" d="M323.153,448.915c0,3.959-1.356,7.115-4.07,9.459c-2.716,2.344-6.564,3.52-11.55,3.52
			c-6.456,0-11.404-2.127-14.85-6.379c-3.448-4.252-5.17-10.633-5.17-19.141v-0.439c-3.08,8.508-7.666,15.035-13.75,19.58
			c-6.088,4.543-13.606,6.82-22.551,6.82c-12.027,0-20.79-3.445-26.29-10.34s-8.25-18.48-8.25-34.762l-0.22-42.021
			c0-11.291-1.177-20.092-3.521-26.398c4.104-3.521,8.724-5.279,13.859-5.279c4.104,0,7.441,1.139,10.011,3.409
			c2.563,2.274,3.85,5.392,3.85,9.351v57.42c0,13.201,1.32,22.625,3.96,28.271c2.641,5.646,7.404,8.469,14.301,8.469
			c4.691,0,9.021-1.869,12.979-5.609c3.959-3.738,7.149-9.494,9.569-17.27c2.42-7.773,3.63-17.381,3.63-28.82
			c0-17.305-0.22-28.782-0.659-34.43c-0.439-5.645-1.616-10.891-3.521-15.73c4.252-3.372,8.872-5.061,13.859-5.061
			c3.96,0,7.26,1.248,9.899,3.74c2.641,2.496,3.96,5.867,3.96,10.12l0.221,75.021c0,4.107,0.474,7.006,1.43,8.689
			c0.952,1.688,2.454,2.529,4.511,2.529c2.641,0,4.545-0.951,5.721-2.859C322.273,443.27,323.153,445.981,323.153,448.915z"/>
		<path fill="#EC6823" d="M380.572,346.393c4.84-0.145,8.652-0.292,11.44-0.439l-0.221,5.939c-0.147,1.906-0.771,3.408-1.87,4.51
			c-1.101,1.102-2.529,1.648-4.29,1.648H364.95v7.262l-0.22,66.221c0,7.92,3.444,11.881,10.34,11.881c2.052,0,3.994-0.33,5.83-0.99
			c1.832-0.66,3.042-1.574,3.63-2.75c1.904,2.787,2.86,5.5,2.86,8.141c0,4.107-2.02,7.445-6.051,10.01
			c-4.035,2.563-9.205,3.85-15.511,3.85c-7.92,0-14.079-2.492-18.479-7.479c-4.4-4.984-6.602-11.881-6.602-20.682v-75.46h-3.079
			c-1.907,0-4.107,0.075-6.601,0.221c-2.496,0.147-4.695,0.367-6.6,0.66l0.22-6.381c0.145-1.904,0.805-3.371,1.979-4.399
			c1.174-1.023,2.642-1.539,4.4-1.539h9.68v-16.721c0-3.813,1.32-6.854,3.96-9.13c2.642-2.272,6.014-3.41,10.12-3.41
			c5.133,0,9.682,1.761,13.642,5.278c-1.762,6.457-2.86,14.449-3.302,23.98h3.961C371.916,346.614,375.732,346.542,380.572,346.393z
			"/>
		<path fill="#EC6823" d="M481.329,349.915c4.984,4.254,7.479,10.119,7.479,17.6c0,5.574-1.615,10.047-4.84,13.42
			c-3.228,3.375-7.26,5.061-12.101,5.061c-4.548,0-7.848-1.172-9.899-3.521c1.611-2.64,2.712-5.022,3.3-7.149
			c0.585-2.125,0.881-4.582,0.881-7.371c0-8.358-3.668-12.539-11-12.539c-5.868,0-10.599,4.289-14.19,12.869
			c-3.596,8.58-5.39,21.45-5.39,38.61v8.36c0,13.055,0.22,22.037,0.659,26.949c0.439,4.916,1.54,9.57,3.301,13.971
			c-1.468,1.32-3.376,2.494-5.721,3.52c-2.348,1.023-5.061,1.611-8.141,1.76c-3.959,0-7.298-1.248-10.01-3.74
			c-2.716-2.492-4.069-5.861-4.069-10.119v-74.359c0-3.96-0.479-6.854-1.431-8.689c-0.956-1.832-2.458-2.75-4.51-2.75
			c-2.788,0-4.696,1.027-5.721,3.08c-1.907-2.785-2.859-5.572-2.859-8.359c0-3.813,1.393-6.93,4.18-9.35
			c2.784-2.42,6.672-3.631,11.66-3.631c6.012,0,10.779,2.055,14.3,6.159c3.521,4.106,5.354,10.195,5.5,18.261
			c5.133-16.279,14.813-24.42,29.04-24.42C469.813,343.534,476.341,345.661,481.329,349.915z"/>
		<path fill="#EC6823" d="M506.295,325.711c-2.859-2.782-4.289-6.16-4.289-10.119c0-4.104,1.43-7.59,4.289-10.449
			c2.86-2.859,6.344-4.29,10.45-4.29c3.959,0,7.369,1.431,10.229,4.29c2.861,2.859,4.291,6.346,4.291,10.449
			c0,3.959-1.43,7.337-4.291,10.119c-2.859,2.789-6.271,4.182-10.229,4.182C512.639,329.893,509.156,328.5,506.295,325.711z
			 M533.245,456.614c-4.106,3.664-8.729,5.5-13.86,5.5c-3.959,0-7.188-1.139-9.681-3.41c-2.495-2.271-3.739-5.391-3.739-9.35
			l-0.22-74.359c0-10.705-1.176-19.506-3.521-26.4c4.4-3.521,8.873-5.28,13.422-5.28c3.959,0,7.221,1.138,9.789,3.41
			c2.564,2.274,3.85,5.39,3.85,9.351l0.439,74.359C529.725,441.874,530.898,450.6,533.245,456.614z"/>
	</g>
	<g>
		<g>
			<path fill="#088457" d="M879.716,131.083c6.063-1.865,10.79-1.63,14.175,0.7c3.38,2.335,5.425,5.425,6.125,9.275
				s0,7.76-2.1,11.725c-2.102,3.97-5.485,6.65-10.15,8.05c-6.07,1.87-12.021,4.085-17.85,6.65c-5.836,2.57-11.552,5.37-17.15,8.4
				c13.529,0.7,27.3,2.51,41.3,5.425c14,2.92,26.655,7.585,37.976,14c11.314,6.42,20.591,14.76,27.824,25.025
				c7.23,10.271,10.965,22.985,11.2,38.15c0.229,12.37-1.985,23.859-6.649,34.475c-4.671,10.621-10.734,20.535-18.199,29.75
				c-7.472,9.221-15.812,17.795-25.025,25.726c-9.22,7.937-18.375,15.171-27.475,21.7c-21.235,14.699-43.285,27.824-66.15,39.375
				c-22.87,11.549-46.67,21.404-71.398,29.574c-8.4,2.801-17.91,5.775-28.525,8.926c-10.62,3.15-21.76,5.949-33.425,8.4
				c-11.671,2.449-23.57,4.199-35.7,5.25c-12.135,1.049-23.8,0.875-35-0.525s-21.525-4.436-30.975-9.1
				c-9.45-4.672-17.445-11.438-23.977-20.301c-7.235-9.801-10.91-19.546-11.023-29.227c-0.121-9.686,2.153-19.021,6.823-28
				c4.665-8.979,11.142-17.5,19.427-25.549c8.278-8.051,17.203-15.455,26.773-22.227c9.565-6.766,19.075-12.715,28.525-17.85
				c9.449-5.131,17.79-9.33,25.023-12.6c0.931-0.466,1.806-0.875,2.625-1.227c0.815-0.35,1.69-0.756,2.625-1.225l11.551-13.301
				c8.164-9.8,16.739-19.13,25.726-28c8.979-8.865,18.255-17.615,27.825-26.25c-28.235,9.571-53.671,22.17-76.301,37.801
				c-2.569,1.399-6.011,2.449-10.324,3.149c-4.32,0.698-8.4,0.698-12.25,0c-3.852-0.7-6.887-2.33-9.102-4.899
				c-2.22-2.564-2.395-6.301-0.523-11.201c1.398-3.5,3.965-6.765,7.699-9.8c3.729-3.029,7.814-5.89,12.25-8.575
				c4.431-2.68,8.864-5.075,13.301-7.175c4.43-2.1,8.05-3.85,10.85-5.25c18.9-9.8,38.675-18.14,59.325-25.025
				c20.649-6.879,41.59-11.955,62.825-15.225c13.3-10.03,27.238-19.54,41.824-28.525
				C848.619,142.579,863.846,135.753,879.716,131.083z M857.666,207.033c-18.437-0.7-37.336,0.35-56.7,3.15
				c-0.7,0.7-1.46,1.346-2.275,1.925c-0.82,0.585-1.575,1.11-2.274,1.575c-12.836,9.57-25.319,19.426-37.449,29.575
				c-12.137,10.15-23.801,20.825-35,32.026c17.729-3.966,35.113-6.301,52.148-7c1.4,0,3.73,0.059,7,0.174
				c3.267,0.121,6.825,0.471,10.676,1.051c3.851,0.584,7.699,1.285,11.551,2.101c3.85,0.819,6.938,1.983,9.273,3.5
				c2.33,1.521,3.676,3.324,4.025,5.425c0.35,2.1-1.11,4.551-4.375,7.35c-3.971,3.5-7.76,5.951-11.375,7.351
				c-3.62,1.399-7.295,2.336-11.025,2.802c-3.733,0.469-7.585,0.584-11.55,0.35c-3.97-0.229-8.17-0.229-12.6,0
				c-13.771,0.699-27.36,2.625-40.775,5.775c-13.42,3.148-26.66,7.174-39.725,12.073c-4.2,5.136-8.347,10.562-12.425,16.274
				c-4.087,5.722-7.82,11.611-11.2,17.676c-3.387,6.07-6.187,12.311-8.4,18.727c-2.22,6.42-3.675,13.004-4.375,19.773
				c-0.47,5.83-2.685,9.449-6.649,10.852c-3.971,1.398-8.051-0.472-12.25-5.602c-4.671-5.37-6.711-10.971-6.125-16.801
				c0.579-5.83,1.806-11.778,3.676-17.85c2.329-6.301,5.13-12.601,8.398-18.9c-8.398,5.371-16.975,11.437-25.725,18.201
				c-8.75,6.771-15.925,13.824-21.525,21.174c-5.6,7.351-8.635,14.756-9.1,22.226c-0.471,7.466,3.38,14.466,11.55,21.001
				c5.13,4.664,11.2,8.051,18.2,10.148c7,2.1,14.35,3.381,22.05,3.852c7.7,0.465,15.34,0.35,22.925-0.352
				c7.58-0.699,14.525-1.398,20.825-2.1c18.9-2.57,37.565-6.596,56-12.074c18.43-5.485,36.4-11.961,53.9-19.426
				c13.063-5.601,26.54-11.846,40.425-18.726c13.88-6.88,27.18-14.579,39.9-23.101c12.715-8.515,24.613-18.024,35.698-28.524
				c11.08-10.5,20.355-22.165,27.825-35c8.165-14,11.375-26.539,9.625-37.625c-1.75-11.079-6.595-20.475-14.523-28.175
				c-7.937-7.7-18.086-13.65-30.45-17.85C883.096,209.833,870.494,207.503,857.666,207.033z"/>
		</g>
		<g>
			<path fill="#088457" d="M1016.88,406.889c-3.415,5.551-7.63,11.201-12.641,16.961c-5.016,5.76-10.561,10.936-16.641,15.52
				c-6.08,4.59-12.64,8.32-19.681,11.201c-7.039,2.879-14.295,4.318-21.76,4.318c-6.83,0-12.59-1.225-17.279-3.68
				c-4.69-2.451-8.104-5.865-10.24-10.24c-2.13-4.371-2.88-9.49-2.239-15.359c0.64-5.865,2.879-12.21,6.719-19.04
				c1.921-3.409,4-7.2,6.24-11.36s4.426-8.209,6.562-12.16c2.13-3.944,4.159-7.784,6.08-11.52c1.92-3.73,3.625-6.88,5.119-9.439
				c1.92-3.2,4.21-5.329,6.881-6.399c2.664-1.065,6.77-1.601,12.319-1.601c3.84,0,6.931,0.64,9.279,1.921
				c2.346,1.278,2.45,3.948,0.319,8c-1.069,2.135-2.67,5.278-4.8,9.438c-2.136,4.16-4.431,8.48-6.88,12.961
				c-2.455,4.479-4.801,8.75-7.04,12.799c-2.239,4.056-3.896,7.041-4.96,8.961c-1.07,1.92-2.08,4-3.04,6.24
				c-0.96,2.239-1.495,4.43-1.601,6.559c-0.109,2.137,0.37,3.951,1.439,5.441c1.064,1.494,2.881,2.35,5.439,2.559
				c3.41,0.432,7.25-0.424,11.521-2.559c4.265-2.131,8.584-4.906,12.959-8.32c4.37-3.409,8.586-7.2,12.641-11.36
				c4.05-4.159,7.681-8.159,10.88-12c3.2-3.84,6.24-6.185,9.12-7.039c2.88-0.851,5.17-0.586,6.88,0.8
				c1.705,1.391,2.562,3.682,2.562,6.881C1021.039,398.57,1019.649,402.411,1016.88,406.889z M986.8,309.61
				c4.689-0.426,8.479,0.695,11.359,3.359c2.88,2.67,4.104,6.24,3.681,10.721c-0.855,5.975-3.521,11.039-8,15.199
				c-4.48,4.16-9.28,6.24-14.4,6.24c-3.84,0-7.255-1.17-10.239-3.521c-2.989-2.346-4.271-5.76-3.841-10.239
				c0.426-4.48,2.561-9.064,6.4-13.761C975.6,312.92,980.609,310.25,986.8,309.61z"/>
			<path fill="#088457" d="M1118.316,406.889c-5.55,9.391-12.64,18.08-21.28,26.08c-8.64,8-17.813,14.455-27.52,19.359
				c-9.71,4.91-19.63,7.785-29.76,8.641c-10.137,0.852-19.575-1.391-28.32-6.721c-6.19-3.625-10.88-8.529-14.08-14.719
				c-3.2-6.188-5.12-12.852-5.76-20.001c-0.641-7.146-0.051-14.399,1.76-21.76s4.8-14.24,8.96-20.642
				c4.16-6.4,9.385-11.89,15.68-16.479c6.29-4.585,13.49-7.521,21.602-8.8c7.04-1.065,13.385-0.961,19.04,0.319
				c5.648,1.279,10.345,3.521,14.08,6.72c3.729,3.2,6.29,7.096,7.68,11.681c1.385,4.59,1.33,9.551-0.16,14.881
				c-1.92,6.399-5.335,11.949-10.24,16.641c-4.908,4.693-10.453,8.318-16.64,10.879c-6.188,2.561-12.64,3.951-19.36,4.16
				c-6.72,0.215-12.854-0.959-18.398-3.521c0.21,3.63,1.063,6.99,2.56,10.081c1.49,3.094,3.841,5.6,7.04,7.52
				c8.96,5.549,20.051,5.6,33.28,0.16c13.225-5.439,28.37-17.65,45.44-36.642c3.198-3.625,6.289-5.864,9.278-6.72
				c2.985-0.85,5.28-0.641,6.88,0.641c1.602,1.28,2.4,3.521,2.4,6.721C1122.477,398.57,1121.087,402.411,1118.316,406.889z
				 M1047.916,370.411c-5.551,0-10.829,2.295-15.841,6.879c-5.015,4.59-9.015,10.08-12,16.48c2.347,1.494,5.227,2.455,8.642,2.88
				c3.41,0.431,6.88,0.216,10.398-0.64c3.521-0.852,6.825-2.24,9.92-4.16c3.092-1.92,5.602-4.48,7.521-7.68
				c1.92-3.41,2.025-6.562,0.32-9.441C1055.166,371.85,1052.182,370.411,1047.916,370.411z"/>
			<path fill="#088457" d="M1096.875,330.09c1.489,2.35,4.904,3.52,10.239,3.52c5.33,0,12.05-1.064,20.16-3.199l16.319-33.92
				c2.346-4.691,5.17-7.841,8.479-9.441c3.306-1.6,7.521-2.398,12.641-2.398s8.745,0.96,10.88,2.881
				c2.13,1.92,2.24,4.799,0.319,8.641l-13.12,24.959c7.466-2.984,14.187-4.801,20.16-5.439c5.971-0.641,11.146-0.529,15.521,0.32
				c4.37,0.854,7.841,2.238,10.399,4.16c2.561,1.92,4.266,4.055,5.12,6.398c0.851,2.989,0.53,6.135-0.96,9.439
				c-1.494,3.311-3.521,6.189-6.08,8.641c-2.56,2.454-5.39,4-8.479,4.641c-3.095,0.641-5.71-0.32-7.84-2.881
				c-1.71-1.92-4.271-3.146-7.681-3.681c-3.414-0.528-7.095-0.528-11.039,0c-3.95,0.535-8.056,1.336-12.32,2.399
				c-4.271,1.07-8,2.24-11.199,3.521c-2.775,5.335-5.551,10.561-8.32,15.68c-2.774,5.121-5.279,9.871-7.521,14.24
				c-2.239,4.375-4.271,8.271-6.08,11.68c-1.813,3.416-3.149,6.08-4,8c-4.055,7.896-6.51,14.352-7.358,19.36
				c-0.855,5.015,0.425,8.694,3.84,11.04c3.199,2.35,7.145,2.936,11.84,1.76c4.689-1.17,9.649-3.465,14.88-6.879
				c5.226-3.41,10.45-7.681,15.681-12.802c5.226-5.119,9.971-10.448,14.239-16c2.985-3.84,5.92-6.239,8.801-7.198
				c2.88-0.961,5.17-0.746,6.88,0.641c1.705,1.389,2.609,3.734,2.721,7.039c0.104,3.311-1.23,7.199-4,11.68
				c-3.84,6.4-8.48,12.641-13.92,18.721c-5.44,6.08-11.416,11.471-17.921,16.16c-6.51,4.693-13.391,8.43-20.641,11.199
				c-7.255,2.775-14.72,4.16-22.399,4.16c-7.681,0-13.869-1.545-18.561-4.641c-4.689-3.09-8-7.146-9.92-12.16
				c-1.92-5.01-2.505-10.719-1.76-17.119c0.75-6.4,2.829-12.904,6.239-19.521c2.99-5.545,6.665-12.801,11.04-21.76
				c4.37-8.962,8.904-18.24,13.601-27.841c-4.91,0.431-9.71,0.375-14.399-0.159c-4.695-0.53-8.641-1.972-11.841-4.32
				c-3.199-2.131-4.904-4.801-5.119-8c-0.211-3.2,0.375-5.971,1.76-8.319c1.391-2.346,3.149-4,5.279-4.961
				C1093.57,327.37,1095.385,327.959,1096.875,330.09z"/>
			<path fill="#088457" d="M1327.593,406.889c-5.55,9.391-12.48,17.871-20.8,25.439c-8.32,7.576-16.855,13.496-25.602,17.76
				c-7.47,3.631-14.455,5.602-20.96,5.92c-6.51,0.32-12.108-0.584-16.8-2.719c-4.695-2.131-8.375-5.33-11.04-9.6
				c-2.67-4.268-4-9.17-4-14.723c-1.71,3.201-4.91,6.83-9.601,10.881c-4.694,4.057-9.976,7.471-15.84,10.24
				c-5.869,2.775-12,4.16-18.399,4.16c-6.4,0-12.056-2.561-16.96-7.68c-4.905-5.121-7.73-11.146-8.48-18.08
				c-0.744-6.932,0.216-14.186,2.881-21.762c2.67-7.568,6.824-15.145,12.479-22.719c5.649-7.57,12.53-14.561,20.64-20.961
				c8.105-6.399,16.426-10.879,24.961-13.439c8.529-2.561,16.529-3.891,24-4c7.465-0.105,14.079,0.801,19.84,2.721
				s9.921,4.271,12.479,7.039c2.562,2.775,3.785,5.601,3.681,8.48c-0.109,2.879-0.801,5.391-2.08,7.52
				c-1.279,2.135-2.936,3.631-4.959,4.48c-2.03,0.854-3.682,0.641-4.961-0.641c-2.561-2.771-5.761-4.851-9.601-6.24
				c-3.84-1.385-8.64-2.08-14.399-2.08c-7.471,0-14.239,1.336-20.319,4c-6.08,2.67-11.521,6.031-16.32,10.08
				c-4.8,4.056-8.8,8.535-12,13.439c-3.2,4.91-5.495,9.602-6.88,14.08c-1.39,4.479-1.92,8.432-1.6,11.84
				c0.318,3.416,1.648,5.656,4,6.721c3.625,1.711,7.68,1.602,12.159-0.32c4.479-1.92,9.12-5.225,13.921-9.92
				c4.8-4.689,9.704-10.449,14.72-17.279c5.01-6.824,9.97-14.289,14.88-22.4c1.49-2.344,3.57-3.784,6.24-4.319
				c2.665-0.528,5.17-0.319,7.52,0.642c2.346,0.959,4.21,2.455,5.602,4.479c1.385,2.028,1.545,4.431,0.479,7.198
				c-1.495,3.841-3.04,7.951-4.64,12.32c-1.601,4.375-2.775,8.535-3.521,12.48c-0.75,3.949-0.8,7.574-0.159,10.879
				c0.641,3.311,2.346,5.814,5.119,7.521c2.771,1.709,6.187,1.869,10.24,0.479c4.05-1.385,8.425-3.783,13.12-7.199
				c4.69-3.41,9.33-7.465,13.92-12.16c4.585-4.688,8.8-9.6,12.64-14.721c2.985-3.84,5.921-6.238,8.802-7.199
				c2.88-0.959,5.225-0.744,7.04,0.641c1.81,1.39,2.72,3.734,2.72,7.039C1331.753,398.52,1330.362,402.411,1327.593,406.889z"/>
		</g>
	</g>
	<g>
		<polygon fill="#088457" points="270.788,85.338 280.913,69.439 316.545,102.834 271.402,85.729 		"/>
		<polygon fill="#088457" points="334.505,68.104 345.371,83.188 301.226,104.016 333.913,68.53 		"/>
		<polygon fill="#088457" points="293,53.333 322.655,53.333 308.438,101.276 293,53.961 		"/>
	</g>
	<circle fill="#EC6823" cx="308.079" cy="183.22" r="84.655"/>
</g>
</svg>
