<?xml version="1.0" encoding="utf-8"?>
<!-- Generator: Adobe Illustrator 16.0.0, SVG Export Plug-In . SVG Version: 6.00 Build 0)  -->
<!DOCTYPE svg PUBLIC "-//W3C//DTD SVG 1.1//EN" "http://www.w3.org/Graphics/SVG/1.1/DTD/svg11.dtd">
<svg version="1.1" id="Camada_1" xmlns="http://www.w3.org/2000/svg" xmlns:xlink="http://www.w3.org/1999/xlink" x="0px" y="0px"
	 width="1422.667px" height="522.333px" viewBox="0 0 1422.667 522.333" enable-background="new 0 0 1422.667 522.333"
	 xml:space="preserve">
<g>
	<g>
		<path fill="#EC6823" d="M195.114,456.613c-3.96,3.664-8.58,5.5-13.859,5.5c-4.108,0-7.48-1.138-10.12-3.41
			c-2.641-2.271-3.96-5.39-3.96-9.35v-57.42c-0.148-12.172-1.578-21.154-4.29-26.95c-2.716-5.792-7.666-8.69-14.851-8.69
			c-4.84,0-9.277,1.836-13.31,5.5c-4.036,3.668-7.298,9.278-9.79,16.83c-2.496,7.557-3.74,16.979-3.74,28.271
			c0,17.308,0.22,28.747,0.66,34.319c0.439,5.576,1.612,10.781,3.52,15.621c-1.468,1.319-3.409,2.529-5.83,3.629
			c-2.42,1.101-5.025,1.65-7.81,1.65c-4.256,0-7.7-1.248-10.34-3.74s-3.96-5.863-3.96-10.119v-75.021
			c-0.148-4.104-0.66-7.04-1.54-8.8s-2.348-2.641-4.4-2.641c-2.787,0-4.695,1.028-5.72,3.08c-1.908-2.784-2.86-5.572-2.86-8.359
			c0-3.813,1.393-6.93,4.181-9.35c2.784-2.42,6.672-3.631,11.66-3.631c6.304,0,11.182,2.166,14.63,6.49
			c3.444,4.328,5.17,10.746,5.17,19.25v1.1c2.932-8.652,7.59-15.289,13.97-19.91c6.38-4.619,14.114-6.93,23.21-6.93
			c12.024,0,20.935,3.74,26.73,11.221c5.792,7.479,8.689,18.699,8.689,33.66v42.02C191.446,442.46,192.767,451.189,195.114,456.613z
			"/>
		<path fill="#EC6823" d="M323.153,448.914c0,3.959-1.357,7.115-4.07,9.459c-2.716,2.345-6.565,3.521-11.55,3.521
			c-6.456,0-11.405-2.128-14.85-6.38c-3.448-4.252-5.17-10.633-5.17-19.141v-0.439c-3.08,8.508-7.666,15.035-13.75,19.58
			c-6.088,4.544-13.606,6.82-22.551,6.82c-12.027,0-20.79-3.445-26.29-10.34c-5.5-6.893-8.25-18.48-8.25-34.761l-0.22-42.021
			c0-11.291-1.176-20.092-3.52-26.399c4.104-3.521,8.724-5.28,13.859-5.28c4.104,0,7.442,1.139,10.011,3.41
			c2.563,2.275,3.85,5.391,3.85,9.35v57.42c0,13.201,1.32,22.626,3.96,28.271c2.64,5.647,7.404,8.47,14.3,8.47
			c4.692,0,9.021-1.869,12.98-5.609s7.149-9.494,9.569-17.271c2.42-7.772,3.63-17.38,3.63-28.819c0-17.305-0.22-28.783-0.659-34.431
			c-0.44-5.644-1.616-10.89-3.521-15.729c4.252-3.373,8.872-5.061,13.86-5.061c3.96,0,7.26,1.248,9.899,3.74
			c2.641,2.496,3.96,5.867,3.96,10.12l0.221,75.021c0,4.107,0.474,7.005,1.43,8.689c0.952,1.688,2.454,2.529,4.51,2.529
			c2.641,0,4.545-0.951,5.721-2.859C322.273,443.269,323.153,445.981,323.153,448.914z"/>
		<path fill="#EC6823" d="M380.572,346.393c4.84-0.145,8.652-0.292,11.44-0.44l-0.221,5.94c-0.147,1.907-0.77,3.409-1.87,4.51
			c-1.1,1.101-2.529,1.649-4.29,1.649h-20.68v7.261l-0.22,66.22c0,7.92,3.444,11.881,10.34,11.881c2.052,0,3.994-0.33,5.83-0.99
			c1.832-0.66,3.042-1.574,3.63-2.75c1.904,2.787,2.86,5.5,2.86,8.14c0,4.108-2.019,7.446-6.051,10.01
			c-4.035,2.564-9.205,3.851-15.51,3.851c-7.92,0-14.08-2.492-18.479-7.48c-4.4-4.984-6.601-11.88-6.601-20.68v-75.461h-3.08
			c-1.907,0-4.107,0.076-6.6,0.221c-2.496,0.148-4.695,0.367-6.6,0.66l0.22-6.381c0.145-1.904,0.805-3.371,1.979-4.399
			c1.173-1.024,2.641-1.54,4.4-1.54h9.68v-16.72c0-3.813,1.32-6.854,3.96-9.13c2.641-2.272,6.013-3.41,10.12-3.41
			c5.133,0,9.681,1.76,13.641,5.279c-1.761,6.456-2.86,14.448-3.301,23.98h3.96C371.917,346.613,375.732,346.541,380.572,346.393z"
			/>
		<path fill="#EC6823" d="M481.33,349.914c4.984,4.255,7.479,10.119,7.479,17.6c0,5.575-1.615,10.047-4.84,13.42
			c-3.227,3.375-7.26,5.061-12.1,5.061c-4.548,0-7.848-1.173-9.9-3.521c1.612-2.64,2.712-5.022,3.3-7.15
			c0.585-2.124,0.881-4.582,0.881-7.37c0-8.359-3.668-12.539-11-12.539c-5.868,0-10.599,4.289-14.19,12.869
			c-3.596,8.58-5.39,21.45-5.39,38.61v8.36c0,13.055,0.22,22.037,0.659,26.949c0.44,4.916,1.54,9.57,3.301,13.971
			c-1.468,1.32-3.376,2.495-5.721,3.52c-2.348,1.024-5.06,1.612-8.14,1.76c-3.96,0-7.298-1.248-10.01-3.74
			c-2.716-2.492-4.07-5.863-4.07-10.119v-74.36c0-3.96-0.478-6.854-1.43-8.69c-0.956-1.832-2.458-2.75-4.51-2.75
			c-2.788,0-4.696,1.028-5.721,3.08c-1.907-2.784-2.859-5.572-2.859-8.359c0-3.813,1.392-6.93,4.18-9.35
			c2.784-2.42,6.672-3.631,11.66-3.631c6.012,0,10.779,2.056,14.3,6.16c3.52,4.107,5.353,10.195,5.5,18.26
			c5.132-16.279,14.813-24.42,29.04-24.42C469.813,343.533,476.341,345.661,481.33,349.914z"/>
		<path fill="#EC6823" d="M506.295,325.712c-2.859-2.783-4.289-6.16-4.289-10.119c0-4.104,1.43-7.59,4.289-10.45
			c2.861-2.86,6.344-4.29,10.451-4.29c3.959,0,7.369,1.43,10.229,4.29c2.861,2.86,4.291,6.346,4.291,10.45
			c0,3.959-1.43,7.336-4.291,10.119c-2.859,2.789-6.27,4.181-10.229,4.181C512.639,329.893,509.156,328.501,506.295,325.712z
			 M533.246,456.613c-4.107,3.664-8.729,5.5-13.861,5.5c-3.959,0-7.188-1.138-9.68-3.41c-2.496-2.271-3.74-5.39-3.74-9.35
			l-0.219-74.359c0-10.705-1.176-19.505-3.521-26.4c4.4-3.521,8.873-5.28,13.422-5.28c3.959,0,7.221,1.138,9.789,3.41
			c2.564,2.275,3.85,5.39,3.85,9.35l0.439,74.36C529.725,441.873,530.898,450.601,533.246,456.613z"/>
	</g>
	<g>
		<g>
			<path fill="#088457" d="M879.716,131.083c6.064-1.865,10.79-1.63,14.175,0.7c3.38,2.335,5.425,5.425,6.125,9.275
				c0.7,3.85,0,7.76-2.1,11.725c-2.101,3.97-5.485,6.65-10.15,8.05c-6.07,1.87-12.021,4.085-17.85,6.65
				c-5.836,2.57-11.551,5.37-17.15,8.4c13.529,0.7,27.3,2.51,41.3,5.425c14,2.92,26.655,7.585,37.976,14
				c11.314,6.42,20.59,14.76,27.824,25.025c7.23,10.271,10.965,22.985,11.2,38.15c0.229,12.37-1.985,23.859-6.649,34.475
				c-4.671,10.62-10.735,20.535-18.2,29.75c-7.471,9.22-15.811,17.795-25.025,25.725c-9.22,7.936-18.375,15.171-27.475,21.7
				c-21.235,14.7-43.285,27.825-66.15,39.375c-22.87,11.55-46.67,21.404-71.399,29.575c-8.4,2.8-17.91,5.774-28.525,8.925
				c-10.62,3.15-21.76,5.95-33.425,8.4c-11.671,2.449-23.57,4.199-35.7,5.25c-12.135,1.05-23.8,0.875-35-0.525
				s-21.525-4.436-30.975-9.1c-9.45-4.671-17.445-11.436-23.976-20.301c-7.235-9.8-10.91-19.545-11.024-29.225
				c-0.121-9.686,2.154-19.021,6.824-28c4.665-8.979,11.141-17.5,19.426-25.55c8.279-8.05,17.204-15.455,26.774-22.226
				c9.565-6.765,19.075-12.715,28.525-17.85c9.45-5.13,17.79-9.33,25.024-12.6c0.93-0.465,1.805-0.875,2.625-1.226
				c0.815-0.35,1.69-0.755,2.625-1.225l11.551-13.3c8.164-9.8,16.739-19.13,25.725-28c8.979-8.865,18.255-17.615,27.825-26.25
				c-28.235,9.571-53.671,22.17-76.3,37.8c-2.57,1.4-6.011,2.45-10.325,3.15c-4.32,0.699-8.4,0.699-12.25,0
				c-3.851-0.7-6.886-2.33-9.101-4.9c-2.22-2.564-2.395-6.3-0.524-11.2c1.399-3.5,3.965-6.765,7.7-9.8
				c3.729-3.029,7.814-5.89,12.25-8.575c4.43-2.68,8.864-5.075,13.3-7.175c4.43-2.1,8.05-3.85,10.85-5.25
				c18.9-9.8,38.675-18.14,59.325-25.025c20.65-6.879,41.59-11.955,62.825-15.225c13.3-10.03,27.239-19.54,41.825-28.525
				C848.62,142.579,863.846,135.753,879.716,131.083z M857.666,207.033c-18.436-0.7-37.336,0.35-56.7,3.15
				c-0.7,0.7-1.46,1.346-2.275,1.925c-0.82,0.585-1.575,1.11-2.274,1.575c-12.836,9.57-25.32,19.426-37.45,29.575
				c-12.136,10.15-23.8,20.825-35,32.025c17.729-3.965,35.114-6.3,52.149-7c1.4,0,3.73,0.06,7,0.175
				c3.266,0.12,6.825,0.471,10.676,1.05c3.85,0.585,7.699,1.285,11.55,2.101c3.85,0.82,6.939,1.984,9.274,3.5
				c2.33,1.52,3.676,3.324,4.025,5.425c0.35,2.1-1.11,4.55-4.375,7.35c-3.971,3.5-7.76,5.95-11.375,7.35
				c-3.62,1.4-7.295,2.336-11.025,2.801c-3.734,0.47-7.585,0.585-11.55,0.35c-3.97-0.229-8.17-0.229-12.6,0
				c-13.771,0.7-27.36,2.625-40.775,5.775c-13.42,3.149-26.66,7.175-39.725,12.074c-4.2,5.136-8.346,10.561-12.425,16.275
				c-4.086,5.721-7.82,11.61-11.2,17.675c-3.386,6.07-6.186,12.311-8.4,18.726c-2.22,6.42-3.675,13.004-4.375,19.774
				c-0.47,5.83-2.685,9.45-6.649,10.851c-3.971,1.399-8.051-0.471-12.25-5.601c-4.671-5.37-6.711-10.97-6.125-16.8
				c0.579-5.83,1.805-11.779,3.675-17.85c2.329-6.301,5.13-12.601,8.399-18.9c-8.399,5.37-16.975,11.436-25.725,18.2
				c-8.75,6.771-15.925,13.825-21.525,21.175c-5.6,7.35-8.635,14.755-9.1,22.225c-0.471,7.465,3.38,14.465,11.55,21
				c5.13,4.665,11.2,8.051,18.2,10.15s14.35,3.38,22.05,3.85c7.7,0.465,15.34,0.351,22.925-0.35c7.58-0.7,14.525-1.4,20.825-2.1
				c18.9-2.57,37.565-6.596,56-12.075c18.43-5.485,36.4-11.96,53.9-19.425c13.064-5.601,26.54-11.846,40.425-18.726
				c13.88-6.88,27.18-14.579,39.9-23.1c12.715-8.515,24.614-18.025,35.699-28.525c11.08-10.5,20.355-22.165,27.825-35
				c8.165-14,11.375-26.539,9.625-37.625c-1.75-11.079-6.595-20.475-14.524-28.175c-7.936-7.7-18.086-13.65-30.45-17.85
				C883.096,209.833,870.495,207.503,857.666,207.033z"/>
		</g>
		<g>
			<path fill="#088457" d="M1016.88,406.889c-3.415,5.551-7.63,11.201-12.64,16.961c-5.016,5.76-10.561,10.935-16.641,15.52
				c-6.08,4.59-12.64,8.32-19.68,11.2s-14.295,4.32-21.76,4.32c-6.83,0-12.59-1.226-17.28-3.681c-4.69-2.45-8.104-5.865-10.24-10.24
				c-2.13-4.37-2.88-9.49-2.239-15.359c0.64-5.865,2.879-12.21,6.719-19.04c1.921-3.41,4-7.2,6.24-11.36s4.426-8.21,6.561-12.16
				c2.13-3.945,4.16-7.785,6.08-11.52c1.92-3.73,3.625-6.88,5.12-9.439c1.92-3.201,4.21-5.33,6.88-6.4
				c2.665-1.065,6.77-1.6,12.32-1.6c3.84,0,6.93,0.639,9.279,1.92c2.346,1.279,2.45,3.949,0.32,8c-1.07,2.135-2.67,5.279-4.8,9.439
				c-2.136,4.16-4.431,8.48-6.88,12.96c-2.455,4.479-4.801,8.75-7.04,12.8c-2.24,4.055-3.896,7.04-4.96,8.961
				c-1.07,1.92-2.08,4-3.04,6.239c-0.96,2.24-1.495,4.431-1.601,6.56c-0.109,2.135,0.37,3.951,1.44,5.44
				c1.064,1.495,2.88,2.351,5.439,2.56c3.41,0.431,7.25-0.424,11.521-2.56c4.265-2.13,8.585-4.905,12.96-8.319
				c4.37-3.41,8.585-7.201,12.64-11.361c4.05-4.159,7.681-8.159,10.88-12c3.2-3.84,6.24-6.184,9.12-7.039
				c2.88-0.85,5.17-0.586,6.88,0.8c1.705,1.39,2.561,3.681,2.561,6.88C1021.04,398.57,1019.649,402.41,1016.88,406.889z
				 M986.8,309.61c4.69-0.426,8.48,0.695,11.36,3.359c2.88,2.67,4.104,6.24,3.68,10.721c-0.855,5.975-3.52,11.039-8,15.199
				s-9.28,6.24-14.4,6.24c-3.84,0-7.255-1.17-10.239-3.52c-2.99-2.346-4.271-5.76-3.841-10.24c0.426-4.48,2.561-9.064,6.4-13.76
				C975.6,312.92,980.609,310.25,986.8,309.61z"/>
			<path fill="#088457" d="M1118.316,406.889c-5.55,9.391-12.64,18.08-21.28,26.08c-8.64,8-17.814,14.455-27.52,19.36
				c-9.71,4.91-19.63,7.785-29.76,8.64c-10.136,0.851-19.575-1.39-28.32-6.72c-6.19-3.625-10.88-8.53-14.08-14.72
				c-3.2-6.186-5.12-12.85-5.76-20c-0.64-7.145-0.05-14.4,1.76-21.76c1.811-7.36,4.8-14.24,8.96-20.641s9.385-11.89,15.68-16.479
				c6.29-4.585,13.49-7.521,21.601-8.8c7.04-1.065,13.385-0.961,19.04,0.32c5.649,1.279,10.345,3.52,14.08,6.719
				c3.729,3.201,6.29,7.096,7.68,11.681c1.385,4.59,1.33,9.55-0.16,14.88c-1.92,6.4-5.335,11.95-10.24,16.641
				c-4.909,4.694-10.454,8.319-16.64,10.879c-6.189,2.561-12.64,3.951-19.36,4.16c-6.72,0.215-12.854-0.959-18.399-3.52
				c0.21,3.63,1.064,6.99,2.56,10.08c1.49,3.095,3.84,5.6,7.04,7.52c8.96,5.55,20.05,5.6,33.28,0.16
				c13.225-5.439,28.37-17.65,45.44-36.641c3.199-3.625,6.29-5.864,9.279-6.719c2.985-0.851,5.28-0.641,6.88,0.64
				c1.601,1.28,2.4,3.521,2.4,6.72C1122.477,398.57,1121.087,402.41,1118.316,406.889z M1047.917,370.41
				c-5.551,0-10.83,2.295-15.841,6.88c-5.015,4.59-9.015,10.08-12,16.48c2.346,1.494,5.226,2.455,8.641,2.88
				c3.41,0.43,6.88,0.215,10.399-0.64c3.521-0.851,6.825-2.24,9.92-4.16c3.091-1.92,5.601-4.48,7.521-7.68
				c1.92-3.41,2.025-6.561,0.32-9.441C1055.167,371.85,1052.182,370.41,1047.917,370.41z"/>
			<path fill="#088457" d="M1096.875,330.09c1.49,2.35,4.905,3.52,10.24,3.52c5.33,0,12.05-1.064,20.16-3.2l16.319-33.92
				c2.346-4.69,5.17-7.84,8.48-9.44c3.305-1.6,7.52-2.399,12.64-2.399s8.745,0.96,10.88,2.88c2.13,1.92,2.24,4.8,0.32,8.641
				l-13.12,24.959c7.465-2.984,14.186-4.8,20.16-5.439c5.97-0.641,11.145-0.53,15.52,0.32c4.37,0.854,7.841,2.239,10.4,4.16
				c2.56,1.92,4.265,4.055,5.12,6.399c0.85,2.989,0.53,6.135-0.96,9.44c-1.495,3.31-3.521,6.189-6.08,8.64
				c-2.56,2.454-5.39,4-8.48,4.64c-3.095,0.641-5.71-0.32-7.84-2.88c-1.71-1.92-4.27-3.146-7.68-3.681
				c-3.415-0.529-7.095-0.529-11.04,0c-3.95,0.535-8.055,1.336-12.32,2.4c-4.27,1.07-8,2.24-11.199,3.521
				c-2.775,5.335-5.551,10.56-8.32,15.68c-2.775,5.12-5.28,9.87-7.521,14.24c-2.239,4.375-4.27,8.271-6.08,11.68
				c-1.814,3.415-3.149,6.08-4,8c-4.055,7.896-6.51,14.351-7.359,19.36c-0.855,5.015,0.425,8.695,3.84,11.04
				c3.2,2.35,7.145,2.935,11.84,1.76c4.69-1.17,9.65-3.465,14.88-6.88c5.226-3.41,10.45-7.68,15.681-12.801
				c5.225-5.119,9.97-10.449,14.239-16c2.985-3.84,5.92-6.239,8.801-7.199c2.88-0.96,5.17-0.745,6.88,0.641
				c1.705,1.389,2.609,3.734,2.72,7.039c0.104,3.311-1.23,7.2-4,11.68c-3.84,6.4-8.48,12.641-13.92,18.721
				c-5.44,6.08-11.415,11.47-17.92,16.16c-6.51,4.694-13.391,8.43-20.641,11.199c-7.255,2.775-14.72,4.16-22.399,4.16
				c-7.681,0-13.87-1.545-18.561-4.64c-4.689-3.09-8-7.146-9.92-12.16c-1.92-5.01-2.505-10.72-1.76-17.12
				c0.75-6.4,2.83-12.904,6.24-19.52c2.99-5.545,6.665-12.801,11.04-21.76c4.37-8.961,8.904-18.24,13.6-27.84
				c-4.91,0.43-9.71,0.375-14.399-0.16c-4.695-0.53-8.641-1.971-11.841-4.32c-3.199-2.131-4.904-4.801-5.119-8
				c-0.211-3.2,0.375-5.971,1.76-8.32c1.39-2.345,3.149-4,5.279-4.96C1093.57,327.37,1095.385,327.959,1096.875,330.09z"/>
			<path fill="#088457" d="M1327.593,406.889c-5.55,9.391-12.48,17.871-20.8,25.44c-8.32,7.575-16.855,13.495-25.601,17.76
				c-7.47,3.63-14.455,5.601-20.96,5.92c-6.51,0.32-12.109-0.585-16.8-2.72c-4.695-2.13-8.375-5.33-11.04-9.6
				c-2.67-4.266-4-9.17-4-14.721c-1.71,3.201-4.91,6.83-9.6,10.881c-4.695,4.055-9.976,7.47-15.84,10.239
				c-5.87,2.775-12,4.16-18.4,4.16s-12.055-2.56-16.96-7.68s-7.73-11.146-8.48-18.08c-0.744-6.931,0.216-14.185,2.881-21.761
				c2.67-7.569,6.824-15.145,12.479-22.719c5.65-7.57,12.53-14.561,20.64-20.961c8.105-6.399,16.426-10.879,24.961-13.439
				c8.529-2.561,16.529-3.891,24-4c7.465-0.105,14.079,0.8,19.84,2.72c5.76,1.92,9.92,4.271,12.479,7.04
				c2.561,2.775,3.785,5.6,3.681,8.48c-0.11,2.879-0.801,5.39-2.08,7.52c-1.28,2.135-2.936,3.63-4.96,4.48
				c-2.03,0.854-3.681,0.64-4.96-0.641c-2.561-2.77-5.761-4.85-9.601-6.24c-3.84-1.385-8.64-2.08-14.399-2.08
				c-7.471,0-14.24,1.336-20.32,4c-6.08,2.67-11.521,6.031-16.32,10.08c-4.8,4.056-8.8,8.535-12,13.44
				c-3.2,4.91-5.495,9.601-6.88,14.08c-1.39,4.479-1.92,8.431-1.6,11.84c0.319,3.415,1.649,5.655,4,6.72
				c3.625,1.711,7.68,1.601,12.159-0.32c4.48-1.92,9.12-5.225,13.921-9.92c4.8-4.689,9.704-10.449,14.72-17.279
				c5.01-6.825,9.97-14.29,14.88-22.4c1.49-2.345,3.57-3.785,6.24-4.32c2.665-0.529,5.17-0.319,7.52,0.641
				c2.345,0.96,4.21,2.455,5.601,4.48c1.385,2.029,1.545,4.43,0.479,7.199c-1.495,3.84-3.04,7.95-4.64,12.32
				c-1.601,4.375-2.775,8.535-3.521,12.48c-0.75,3.949-0.8,7.574-0.16,10.879c0.641,3.311,2.346,5.815,5.12,7.521
				c2.771,1.71,6.186,1.87,10.24,0.479c4.05-1.385,8.425-3.784,13.12-7.199c4.69-3.41,9.33-7.465,13.92-12.16
				c4.585-4.689,8.8-9.6,12.64-14.721c2.985-3.84,5.92-6.239,8.801-7.199c2.88-0.96,5.225-0.745,7.04,0.641
				c1.81,1.389,2.72,3.734,2.72,7.039C1331.753,398.52,1330.362,402.41,1327.593,406.889z"/>
		</g>
	</g>
	<g>
		<polygon fill="#088457" points="270.788,85.338 280.913,69.439 316.545,102.834 271.402,85.729 		"/>
		<polygon fill="#088457" points="334.505,68.104 345.372,83.188 301.226,104.016 333.914,68.53 		"/>
		<polygon fill="#088457" points="293,53.333 322.655,53.333 308.438,101.276 293,53.961 		"/>
	</g>
	<circle fill="#FF0000" cx="308.08" cy="183.22" r="84.655"/>
</g>
</svg>
