<?xml version="1.0" encoding="utf-8"?>
<!-- Generator: Adobe Illustrator 16.0.0, SVG Export Plug-In . SVG Version: 6.00 Build 0)  -->
<!DOCTYPE svg PUBLIC "-//W3C//DTD SVG 1.1//EN" "http://www.w3.org/Graphics/SVG/1.1/DTD/svg11.dtd">
<svg version="1.1" id="Layer_1" xmlns="http://www.w3.org/2000/svg" xmlns:xlink="http://www.w3.org/1999/xlink" x="0px" y="0px"
	 width="1920px" height="1024px" viewBox="0 0 1920 1024" enable-background="new 0 0 1920 1024" xml:space="preserve">
<circle fill="#EC6823" cx="874.304" cy="493.917" r="426.303"/>
<circle opacity="0.3" fill="#FFFFFF" enable-background="new    " cx="906.854" cy="182.998" r="45.144"/>
<path fill="#088457" d="M940.245,469.439c93.672,0,173.285,67.21,202.287,95.096c6.777,6.518,6.777,17.294,0,23.81
	c-29.002,27.886-108.617,95.097-202.287,95.097S766.96,616.23,737.958,588.345c-6.778-6.518-6.778-17.294,0-23.81
	C766.957,536.646,846.571,469.439,940.245,469.439z"/>
<path opacity="0.15" enable-background="new    " d="M986.217,593.093h-91.944c-9.198,0-16.652-7.456-16.652-16.65
	c0-9.196,7.454-16.652,16.652-16.652h91.944c9.198,0,16.652,7.456,16.652,16.652C1002.869,585.637,995.415,593.093,986.217,593.093z
	"/>
<path fill="#088457" d="M1263.251,391.451c-31.398,108.356-135.834,177.926-177.814,202.126c-9.812,5.657-22.274,2.044-27.543-7.982
	c-22.538-42.896-73.599-157.521-42.2-265.879c31.397-108.358,135.834-177.924,177.813-202.126
	c9.813-5.658,22.275-2.044,27.542,7.982C1243.589,168.47,1294.647,283.093,1263.251,391.451z"/>
<path opacity="0.15" enable-background="new    " d="M1124.073,425.421c-1.534,0-3.1-0.214-4.646-0.662
	c-8.832-2.56-13.918-11.796-11.356-20.628l30.82-106.361c2.559-8.833,11.797-13.917,20.631-11.357
	c8.832,2.56,13.918,11.795,11.357,20.627l-30.822,106.362C1137.946,420.686,1131.295,425.421,1124.073,425.421z"/>
<path opacity="0.1" enable-background="new    " d="M1272.305,340.985c1.397-17.778,1.028-35.393-0.593-52.515
	c-12.68-4.794-27.741-2.214-38.15,8.2l-533.06,533.06C571.014,756.57,483.584,617.674,483.584,458.34
	c0-108.663,40.678-207.812,107.611-283.101C503.354,253.326,448,367.151,448,493.923c0,235.438,190.859,426.295,426.295,426.295
	c235.437,0,426.296-190.858,426.296-426.295C1300.593,440.02,1290.563,388.463,1272.305,340.985z"/>
<path fill="#EC6823" d="M790.083,820.078c-15.451,15.452-13.727,41.172,3.896,54.101
	c166.778,122.341,402.395,108.141,553.175-42.641c150.776-150.777,164.979-386.394,42.64-553.175
	c-12.926-17.622-38.646-19.35-54.1-3.896L790.083,820.078z"/>
<g opacity="0.3">
	<path fill="#FFFFFF" d="M815.562,809.898c56.531,46.613,123.875,73.483,192.875,80.584c5.812,0.598,10.862-3.984,10.862-9.822
		V609.192c0-6.767-8.18-10.153-12.964-5.367L814.859,795.299C810.743,799.414,811.069,806.194,815.562,809.898z"/>
	<path fill="#FFFFFF" d="M1081.179,890.652c69.229-6.771,136.872-33.416,193.693-79.933c4.517-3.695,4.854-10.494,0.727-14.622
		l-192.272-192.272c-4.784-4.784-12.965-1.396-12.965,5.367v271.63C1070.365,886.646,1075.385,891.221,1081.179,890.652z"/>
	<path fill="#FFFFFF" d="M1326.332,759.263c46.517-56.821,73.164-124.468,79.935-193.695c0.565-5.793-4.006-10.813-9.825-10.813
		h-271.637c-6.766,0-10.153,8.18-5.368,12.964l192.275,192.275C1315.837,764.118,1322.634,763.778,1326.332,759.263z"/>
	<path fill="#FFFFFF" d="M1124.807,503.688h271.466c5.843,0,10.421-5.051,9.822-10.861c-7.099-69-33.971-136.344-80.584-192.876
		c-3.704-4.492-10.483-4.818-14.601-0.702l-191.474,191.474C1114.65,495.507,1118.041,503.688,1124.807,503.688z"/>
</g>
</svg>
