<?xml version="1.0" encoding="utf-8"?>
<!-- Generator: Adobe Illustrator 16.0.0, SVG Export Plug-In . SVG Version: 6.00 Build 0)  -->
<!DOCTYPE svg PUBLIC "-//W3C//DTD SVG 1.1//EN" "http://www.w3.org/Graphics/SVG/1.1/DTD/svg11.dtd">
<svg version="1.1" id="Camada_1" xmlns="http://www.w3.org/2000/svg" xmlns:xlink="http://www.w3.org/1999/xlink" x="0px" y="0px"
	 width="464px" height="464px" viewBox="0 0 464 464" enable-background="new 0 0 464 464" xml:space="preserve">
<path fill="#EC6823" d="M184,104h96v256h-96V104z"/>
<path fill="#EC6823" d="M248,72h-32L200,8c10.023-4.789,20.906-7.508,32-8c11.094,0.492,21.977,3.211,32,8L248,72z"/>
<path fill="#EC6823" d="M216,392h32l16,64c-10.023,4.789-20.906,7.508-32,8c-11.094-0.492-21.977-3.211-32-8L216,392z"/>
<path fill="#FBBA00" d="M280,104h-96l8-32h80L280,104z"/>
<path fill="#FBBA00" d="M184,360h96l-8,32h-80L184,360z"/>
<path fill="#FBBA00" d="M64,112c-13.254,0-24,10.746-24,24s10.746,24,24,24s24,10.746,24,24s-10.746,24-24,24H24
	c-13.254,0-24,10.746-24,24s10.746,24,24,24h80c13.254,0,24,10.746,24,24s-10.746,24-24,24H80c-13.254,0-24,10.746-24,24
	s10.746,24,24,24h104V112H64z"/>
<path fill="#FBBA00" d="M344,112c13.254,0,24,10.746,24,24s-10.746,24-24,24s-24,10.746-24,24s10.746,24,24,24h96
	c13.254,0,24,10.746,24,24s-10.746,24-24,24h-64c-13.254,0-24,10.746-24,24s10.746,24,24,24h24c13.254,0,24,10.746,24,24
	s-10.746,24-24,24H280V112H344z"/>
</svg>
