<?xml version="1.0" encoding="utf-8"?>
<!-- Generator: Adobe Illustrator 16.0.0, SVG Export Plug-In . SVG Version: 6.00 Build 0)  -->
<!DOCTYPE svg PUBLIC "-//W3C//DTD SVG 1.1//EN" "http://www.w3.org/Graphics/SVG/1.1/DTD/svg11.dtd">
<svg version="1.1" id="Capa_1" xmlns="http://www.w3.org/2000/svg" xmlns:xlink="http://www.w3.org/1999/xlink" x="0px" y="0px"
	 width="1920px" height="1024px" viewBox="0 0 1920 1024" enable-background="new 0 0 1920 1024" xml:space="preserve">
<g>
	<g>
		<path fill="#007298" d="M1454.316,130.777L1341.173,17.636c-23.448-23.444-61.394-23.452-84.846,0l-36.279,36.28
			c-14.876,14.876-20.57,35.822-16.082,55.726l-164.023,28.941c-36.58,6.474-69.77,23.764-95.969,49.988l-35.064,35.044
			c-23.092,23.092-32.502,54.762-28.242,84.847c-30.31-4.279-61.715,5.13-84.875,28.288c-23.126,23.112-32.582,54.492-28.304,84.865
			c-30.298-4.262-61.696,5.137-84.838,28.278c-22.468,22.468-32.701,53.577-28.281,84.897c-30.09-4.264-61.762,5.146-84.858,28.239
			l-80.581,80.562c-54.573,54.578-54.575,143.401,0.002,198.005l141.423,141.422c54.594,54.567,143.412,54.581,198.003-0.004
			l80.558-80.58c23.096-23.096,32.506-54.773,28.238-84.865c31.182,4.397,62.346-5.718,84.899-28.272
			c23.088-23.087,32.495-54.757,28.233-84.849c31.016,4.38,62.229-5.588,84.908-28.29c23.09-23.09,32.497-54.756,28.237-84.84
			c31.31,4.42,62.428-5.806,84.907-28.285l35.03-35.048c26.235-26.212,43.523-59.404,49.998-95.994l28.939-164.009
			c19.866,4.478,40.819-1.174,55.728-16.082l36.28-36.28C1477.764,192.173,1477.769,154.227,1454.316,130.777z M880.63,874.15
			l-80.558,80.578c-38.984,38.985-102.436,38.983-141.436,0L517.22,813.315c-38.986-39.004-38.986-102.453-0.004-141.438
			l80.581-80.562c23.395-23.396,61.46-23.396,84.855,0l197.979,197.977C904.027,812.689,904.027,850.755,880.63,874.15z
			 M993.767,761.012c-23.384,23.384-61.371,23.481-84.854,0L710.935,563.033c-23.441-23.444-23.448-61.406,0.002-84.856
			c23.426-23.428,61.361-23.436,84.838-0.014c0.006,0.006,0.01,0.01,0.016,0.016l197.971,197.97l0.002,0.002c0,0,0,0,0,0.002
			C1017.152,699.558,1017.157,737.624,993.767,761.012z M1106.902,647.88c-23.422,23.45-61.414,23.454-84.848-0.008L824.069,449.89
			c-23.455-23.44-23.468-61.396,0.007-84.852c23.458-23.458,61.373-23.462,84.835,0l197.999,197.999
			C1130.302,586.425,1130.302,624.482,1106.902,647.88z M1293.978,425.033c-5.036,28.458-18.48,54.274-38.893,74.666l-35.035,35.054
			c-23.395,23.396-61.46,23.396-84.855,0L937.195,336.754c-23.394-23.396-23.394-61.459-0.004-84.852l35.069-35.05
			c20.38-20.399,46.197-33.844,74.644-38.879l180.507-31.85l98.414,98.416L1293.978,425.033z M1426.03,187.337l-36.279,36.28
			c-7.816,7.814-20.458,7.816-28.276,0l-113.14-113.141c-7.813-7.818-7.815-20.458,0.002-28.276l36.28-36.28
			c7.817-7.816,20.46-7.814,28.275,0l113.138,113.141C1433.832,166.865,1433.86,179.503,1426.03,187.337z"/>
	</g>
</g>
<g>
	<g>
		<path fill="#007298" d="M1458.824,757.56l-89.12-174.597c-3.418-6.694-10.297-10.908-17.813-10.908
			c-7.516,0-14.396,4.214-17.813,10.908l-89.113,174.589c-40.504,79.241,17.213,174.501,106.927,174.501
			C1441.588,932.053,1499.326,836.81,1458.824,757.56z M1351.891,892.053c-59.867,0-98.255-63.58-71.304-116.308l71.304-139.699
			l71.31,139.708C1450.118,828.423,1411.816,892.053,1351.891,892.053z"/>
	</g>
</g>
</svg>
